<?xml version="1.0" standalone="no"?>
<!DOCTYPE svg PUBLIC "-//W3C//DTD SVG 20010904//EN"
 "http://www.w3.org/TR/2001/REC-SVG-20010904/DTD/svg10.dtd">
<svg version="1.0" xmlns="http://www.w3.org/2000/svg"
 width="697.000000pt" height="125.000000pt" viewBox="0 0 697.000000 125.000000"
 preserveAspectRatio="xMidYMid meet">

<g transform="translate(0.000000,125.000000) scale(0.100000,-0.100000)"
fill="#000000" stroke="none">
<path d="M390 1132 c0 -61 3 -118 6 -126 6 -15 327 -296 339 -296 11 0 4 216
-8 236 -7 12 -77 77 -157 144 -80 68 -153 130 -162 138 -17 14 -18 9 -18 -96z"/>
<path d="M1025 1119 c-216 -185 -196 -155 -193 -291 l3 -117 160 137 c88 75
165 148 172 162 14 27 18 230 6 229 -5 0 -71 -54 -148 -120z"/>
<path d="M4100 1040 c-11 -11 -20 -33 -20 -50 0 -17 9 -39 20 -50 43 -43 120
-11 120 50 0 38 -32 70 -70 70 -17 0 -39 -9 -50 -20z"/>
<path d="M1880 640 l0 -350 170 0 170 0 0 45 0 45 -115 0 -115 0 0 305 0 305
-55 0 -55 0 0 -350z"/>
<path d="M10 956 c0 -7 305 -262 327 -275 15 -8 66 -11 154 -9 l131 3 -153
130 c-84 72 -162 135 -173 142 -19 11 -286 20 -286 9z"/>
<path d="M1248 933 c-20 -16 -97 -80 -171 -143 l-136 -115 136 -3 c104 -2 140
1 157 12 11 8 90 73 175 145 l153 131 -139 0 c-137 0 -140 -1 -175 -27z"/>
<path d="M2421 833 c-63 -22 -134 -96 -156 -162 -23 -69 -17 -179 13 -237 48
-93 131 -144 235 -145 129 -1 210 44 262 146 62 122 30 287 -72 359 -24 17
-59 36 -76 43 -45 16 -154 14 -206 -4z m214 -123 c44 -42 58 -86 53 -160 -7
-102 -69 -164 -164 -165 -99 0 -158 68 -158 186 0 76 21 121 75 157 29 20 44
23 96 20 55 -3 67 -8 98 -38z"/>
<path d="M3022 831 c-99 -40 -158 -122 -169 -234 -13 -147 53 -244 226 -330
l93 -47 -111 0 -111 0 0 -55 0 -55 205 0 205 0 0 54 c0 43 -4 56 -17 60 -10 2
-52 14 -93 26 -81 24 -110 40 -69 40 40 0 126 49 164 93 62 72 80 181 49 286
-20 69 -90 141 -159 164 -62 22 -158 21 -213 -2z m188 -99 c99 -53 112 -242
22 -312 -59 -47 -149 -48 -204 -2 -41 35 -58 79 -58 152 0 74 27 132 73 160
42 26 120 26 167 2z"/>
<path d="M3637 836 c-160 -60 -227 -230 -155 -397 72 -170 326 -206 456 -65
57 62 76 119 70 213 -7 113 -53 189 -143 236 -51 26 -173 33 -228 13z m183
-109 c64 -42 93 -131 71 -214 -32 -117 -165 -168 -257 -98 -94 71 -84 263 16
316 50 27 128 25 170 -4z"/>
<path d="M4525 831 c-22 -10 -49 -28 -59 -40 -27 -30 -36 -26 -36 14 l0 35
-55 0 -55 0 0 -405 0 -405 55 0 55 0 0 172 0 171 23 -20 c44 -41 106 -64 171
-65 99 0 171 41 223 130 21 36 28 61 31 126 5 98 -8 151 -51 208 -66 88 -204
124 -302 79z m166 -104 c44 -29 79 -98 79 -157 -1 -164 -179 -248 -286 -134
-83 88 -54 260 51 304 41 18 120 11 156 -13z"/>
<path d="M5056 835 c-84 -30 -128 -105 -107 -183 15 -56 53 -82 176 -122 55
-18 108 -39 118 -48 44 -39 -3 -102 -77 -102 -47 0 -101 29 -111 59 -5 18 -14
21 -65 21 l-59 0 9 -31 c29 -102 141 -159 271 -138 101 16 159 75 159 161 0
76 -38 110 -169 153 -57 19 -112 42 -123 51 -22 21 -23 57 -3 78 20 19 76 30
107 21 29 -9 68 -44 68 -62 0 -9 17 -13 59 -13 l59 0 -10 38 c-12 46 -51 89
-103 113 -48 22 -143 24 -199 4z"/>
<path d="M6246 821 l-56 -30 0 25 c0 23 -3 24 -55 24 l-55 0 0 -275 0 -275 55
0 55 0 0 175 c0 192 7 225 55 263 39 31 120 30 166 -1 48 -32 57 -74 58 -269
l1 -168 55 0 55 0 0 175 c0 192 7 225 55 263 34 27 111 30 156 6 57 -29 69
-76 69 -271 l0 -173 56 0 55 0 -3 203 c-3 184 -5 206 -25 242 -41 78 -105 115
-195 115 -63 0 -145 -35 -176 -75 l-22 -27 -27 32 c-63 75 -179 92 -277 41z"/>
<path d="M4090 565 l0 -276 58 3 57 3 3 273 2 272 -60 0 -60 0 0 -275z"/>
<path d="M5460 648 c0 -183 1 -196 24 -245 33 -69 86 -105 167 -111 78 -6 122
4 158 33 37 32 41 31 41 -5 0 -30 1 -30 55 -30 l55 0 0 275 0 275 -54 0 -54 0
-4 -183 c-3 -198 -8 -217 -64 -254 -35 -23 -111 -22 -151 2 -53 31 -63 72 -63
265 l0 170 -55 0 -55 0 0 -192z"/>
<path d="M174 438 l-167 -143 124 -3 c68 -1 134 0 145 3 17 4 267 207 334 271
12 12 -5 14 -127 14 l-142 0 -167 -142z"/>
<path d="M946 572 c34 -31 284 -242 308 -260 26 -20 39 -22 168 -22 l139 0
-143 123 c-217 186 -178 167 -341 167 -78 0 -137 -4 -131 -8z"/>
<path d="M570 405 c-85 -73 -160 -142 -168 -153 -9 -14 -12 -52 -10 -131 l3
-111 160 136 c88 75 165 146 172 158 13 23 18 236 6 235 -5 0 -78 -60 -163
-134z"/>
<path d="M832 419 l3 -124 165 -142 c91 -78 168 -142 173 -143 9 0 10 165 1
209 -7 31 -79 101 -287 275 l-58 49 3 -124z"/>
</g>
</svg>
